<svg xmlns="http://www.w3.org/2000/svg" fill="#454646" viewBox="0 0 512 512" style="fill: rgb(69, 70, 70);">
    <g>
        <path d="M305.568 177.697l5.026 1.891c.855.338 1.82-.109 2.146-.965.227-.588 5.64-14.356 18.463-14.356 2.467 0 4.059.918 5.313 3.067 2.989 5.154 3.029 15.926.133 28.996H313.5c-.926 0-1.67.753-1.67 1.671v5.365c0 .926.744 1.671 1.67 1.671h20.884c-2.434 8.089-5.633 15.809-9.108 21.936l-1.271 2.235a1.667 1.667 0 0 0 .562 2.236l28.442 17.903-15.082 9.932a1.688 1.688 0 0 0-.48 2.322l2.958 4.479c.51.769 1.542.996 2.314.471l18.366-12.098 19.891 12.977a1.666 1.666 0 0 0 2.329-.511l2.86-4.534c.235-.376.313-.831.215-1.271a1.699 1.699 0 0 0-.753-1.044l-17.055-10.552c6.778-4.4 26.877-17.456 28.062-18.209.31-.196.53-.479.655-.8a1.664 1.664 0 0 0-.157-1.585c-5.974-8.817-7.755-16.035-5.825-23.889l24.148-.023a1.67 1.67 0 0 0 1.671-1.655l.054-5.342a1.672 1.672 0 0 0-.482-1.192 1.693 1.693 0 0 0-1.188-.494h-20.876c4.047-8.661 10.175-15.973 29.379-15.973.927 0 1.672-.746 1.672-1.671v-5.358c0-.926-.745-1.679-1.672-1.679-20.248 0-32.587 7.86-38.722 24.681H345.57c1.914-9.328 3.738-24.32-1.529-33.373-2.816-4.841-7.257-7.398-12.838-7.398-18.938 0-26.309 19.174-26.611 19.989a1.67 1.67 0 0 0 .976 2.15zm71.5 55.786l-16.073 10.6-16.848-10.607 32.921.007zm8.246-8.715H336.18c2.801-6.001 5.332-12.873 7.262-19.73h38.971c-1.24 6.103-.161 13.399 2.901 19.73z"></path><path d="M489.482 404.225c-10.238-11.454-29.286-15.424-42.264-15.204-10.534-12.316-58.063-62.509-68.17-73.171 20.716-14.843 38.069-33.404 51.61-55.197h26.834a1.67 1.67 0 0 0 1.671-1.671v-5.963a1.67 1.67 0 0 0-1.671-1.671h-21.404c.857-1.584 1.732-3.24 2.63-5.005h18.774a1.67 1.67 0 0 0 1.671-1.671v-5.962a1.67 1.67 0 0 0-1.671-1.672h-14.32c12.438-27.788 18.467-58.062 17.934-90.046.078-.196.124-.408.124-.628 0-.164-.026-.329-.073-.486-.122-9.516-2.914-48.623-8.445-59.865a1.68 1.68 0 0 0-2.097-.824c-13.175 5.006-40.08 22.076-47.312 41.266-12.557-1.805-25.83-2.715-39.485-2.715-16.022 0-32.302 1.311-47.187 3.789-6.01-20.688-31.711-35.569-46.737-42.692a1.68 1.68 0 0 0-2.153.667c-7.748 13.069-11.055 42.324-10.27 63.474a1.554 1.554 0 0 0-.078.573c.67 17.832 3.039 34.949 7.04 50.898-57.5 14.646-124.525 52.759-164.35 93.443-14.278-19.644-22.747-38.37-25.176-55.669-2.553-18.186 1.777-34.856 12.525-48.208 10.846-13.471 25.648-20.021 45.25-20.021 5.715 0 11.861.533 18.754 1.624-.24 3.914.486 7.397 2.051 9.704 4.75 7.014 20.889 10.151 34.777 10.151 11.811 0 22.929-2.056 31.3-5.79a1.69 1.69 0 0 0 .934-1.09 1.662 1.662 0 0 0-.252-1.404c-13.922-19.511-40.089-30.29-52.853-30.29-2.451 0-4.461.369-5.967 1.106-2.734 1.333-5.084 3.671-6.855 6.794-9.475-1.655-17.029-2.495-22.465-2.495h-.377c-22.812.173-40.261 8.159-53.35 24.422-12.812 15.917-17.993 35.663-14.98 57.112 2.766 19.707 12.383 40.755 28.596 62.572a571.879 571.879 0 0 0-7.006 7.696C46.354 353.333 15 402.93 15 412.399v4.142c0 .918.75 1.671 1.672 1.671h53.047a1.662 1.662 0 0 0 1.707-1.671c0-.274-.062-.533-.181-.761l-.843-4.456c-2.906-15.36 2.934-34.597 14.877-49.016 6.791-8.19 18.979-18.938 38.633-23.967 17.539 17.016 40.053 35.35 65.182 53.063.281.204.615.314.961.314h39.396c.926 0 1.674-.753 1.674-1.671v-4.143c0-5.256-2.584-9.846-7.275-12.913-3.805-2.487-8.736-3.805-14.268-3.805-3.557 0-7.261.572-10.775 1.655-7.335-8.559-11.657-19.872-12.866-33.663 90.737 8.488 177.109 48.224 256.981 89.943.239.126.506.196.777.196h50.773c.8 0 1.483-.564 1.64-1.35l.667-3.326c1.051-5.245-1.675-12.132-7.297-18.416zm-298.65-119.858l-7.99-2.165a1.612 1.612 0 0 0-1.271.165c-.385.22-.664.58-.777 1.012-4.062 14.992-6.33 28.854-6.75 41.218a418.643 418.643 0 0 0-25.729-.808c-7.197 0-14.191.62-20.812 1.852-7.418-7.453-14.168-14.914-20.084-22.209 10.066-10.348 21.998-20.68 35.5-30.729l18.373 12.686c.297.22.689.384.984.298.969-.047 1.703-.729 1.707-1.671 0-.321-.092-.62-.248-.879l-5.871-20.978a393.224 393.224 0 0 1 16.277-10.324l27.873 14.152c.252.134.525.204.793.188.926-.055 1.703-.737 1.703-1.671 0-.471-.189-.887-.494-1.192l-12.412-21.386a379.128 379.128 0 0 1 9.445-4.903l39.321 26.367c.289.196.643.275.961.283.898.086 1.704-.738 1.704-1.671 0-.354-.108-.683-.292-.95l-12.533-37.123c12.867-5.115 25.418-9.241 37.358-12.27a201.585 201.585 0 0 0 9.778 25.379h-15.584a1.67 1.67 0 0 0-1.674 1.672v5.962a1.67 1.67 0 0 0 1.674 1.671h20.225a207.085 207.085 0 0 0 2.75 5.005h-22.975a1.67 1.67 0 0 0-1.674 1.671v5.963a1.67 1.67 0 0 0 1.674 1.671h28.662c17.058 26.194 40.76 48.333 70.453 65.796a1.639 1.639 0 0 0 1.674.008c2.57-1.467 5.197-3.06 8.002-4.855l5.434 5.845-11.51 17.698a1.677 1.677 0 0 0 .138 2 1.668 1.668 0 0 0 1.962.432l19.734-9.014 9.994 10.755-18.929 14.428a1.665 1.665 0 0 0-.487 2.055 1.675 1.675 0 0 0 1.922.887l27.112-7.014 37.201 40.05c.344.376.854.557 1.364.533l3.205-.282c19.39-1.694 30.37 8.912 33.128 11.995 1.234 1.389 2.141 2.651 2.792 3.727h-37.477c-80.439-41.956-167.641-81.855-260.512-90.219.345-11.548 2.487-24.673 6.378-39.053a1.672 1.672 0 0 0-1.17-2.058zM300.11 143.729c.352.149.748.165 1.113.062 13.822-3.945 30.141-6.574 47.258-7.594l13.879 30.431c.29.636.934 1.036 1.642.973a1.665 1.665 0 0 0 1.485-1.2l8.831-30.493c17.434.651 33.955 3.013 47.86 6.849a1.68 1.68 0 0 0 1.423-.267c13.404-9.744 19.65-23.975 23.038-35.946 2.228 16.451 2.205 40.527 2.173 45.862-.004.102.005.212.021.321h-.024c.267 13.094-.733 26.069-2.981 38.582l-15.557 6.613a1.666 1.666 0 0 0 .404 3.185l12.639 1.922a181.593 181.593 0 0 1-3.236 11.524l-13.121 3.812a1.656 1.656 0 0 0-1.204 1.554 1.676 1.676 0 0 0 1.103 1.624l9.53 3.428c-1.61 4.15-3.35 8.206-5.186 12.066h-21.993c-.921 0-1.671.746-1.671 1.672v5.962c0 .926.75 1.671 1.671 1.671h17.201a162.704 162.704 0 0 1-2.883 5.005h-14.318a1.67 1.67 0 0 0-1.671 1.671v5.963c0 .926.75 1.671 1.671 1.671h8.375c-14.367 20.907-33.342 38.519-55.08 51.095-23.229-11.736-42.749-28.925-58.054-51.095h5.602c.927 0 1.671-.745 1.671-1.671v-5.963c0-.926-.744-1.671-1.671-1.671h-11.6a167.557 167.557 0 0 1-2.898-5.005h14.497c.927 0 1.671-.745 1.671-1.671v-5.962c0-.926-.744-1.672-1.671-1.672h-19.353a199.948 199.948 0 0 1-8.072-19.032l8.656-2.433a1.67 1.67 0 0 0 .167-3.161l-12.347-4.942a215.983 215.983 0 0 1-2.863-10.104l18.209-1.247a1.67 1.67 0 0 0 1.521-1.318 1.665 1.665 0 0 0-.853-1.82l-22.376-11.877c-4.613-25.976-4.699-52.923-.338-75.359 4.936 20.349 13.454 31.889 27.71 37.985zM58.156 406.586h-28.93c7.697-15.173 32.408-53.856 70.182-94.69 4.617 5.617 9.709 11.337 15.174 17.048-15.166 5.06-28.346 13.995-38.254 25.959-12.266 14.795-19.129 34.424-18.172 51.683z">
        </path>
    </g>
</svg>