<svg xmlns="http://www.w3.org/2000/svg"
 width="512.000000pt" height="512.000000pt" viewBox="0 0 512.000000 512.000000"
 preserveAspectRatio="xMidYMid meet">
<g transform="translate(0.000000,512.000000) scale(0.100000,-0.100000)"
fill="#000000" stroke="none">
<path d="M4265 4585 c-31 -12 -217 -192 -837 -812 l-797 -797 -3 504 c-3 562
-1 543 -73 613 -131 128 -358 47 -380 -136 -3 -28 -5 -398 -3 -822 3 -767 3
-770 25 -810 11 -22 34 -52 50 -67 63 -60 27 -58 905 -58 756 0 805 2 843 19
171 78 181 317 16 403 l-53 28 -507 0 -506 0 797 798 c560 559 802 808 813
834 44 107 -6 242 -109 295 -42 22 -133 26 -181 8z"/>
<path d="M845 4576 c-150 -48 -265 -165 -306 -311 -21 -75 -21 -3335 0 -3410
40 -146 152 -260 300 -305 62 -20 101 -20 1721 -20 1585 0 1661 1 1718 18 149
47 271 179 301 325 8 35 10 290 9 785 l-3 734 -40 -32 c-52 -42 -154 -89 -210
-97 l-44 -6 -3 -663 c-3 -651 -3 -663 -24 -690 -11 -15 -33 -37 -48 -48 -27
-21 -29 -21 -1643 -24 -1580 -2 -1616 -2 -1659 17 -26 12 -52 33 -64 53 -20
33 -20 44 -20 1658 0 1593 0 1626 20 1657 43 72 0 67 739 73 l664 5 13 57 c15
63 59 155 100 206 l27 32 -754 -1 c-580 0 -763 -3 -794 -13z"/>
</g>
</svg>
