<svg xmlns="http://www.w3.org/2000/svg" fill="#454646" width="20px" height="20px" viewBox="0 0 512 512" x="0" y="0"><path d="M445.583 251.194c-2.542-97.573-80.791-178.516-177.91-184.326-7.401-1.138-15.24-1.134-21.959-.124-100.779 5.305-179.722 88.543-179.722 189.497C65.992 360.874 151.155 446 255.835 446c102.589 0 187.631-83.31 189.753-185.796.28-1.443.42-2.905.42-4.456 0-1.572-.144-3.102-.425-4.554zm-174.038 29.967V230.33c25.918.46 49.648 2.157 72.305 5.179.435 6.981.478 14.04.478 20.24v.835c0 6.699 0 13.078-.385 19.386-22.615 3.025-46.379 4.723-72.398 5.191zm100.299-9.89c.229-4.822.338-9.946.338-15.523 0-5.134-.128-10.327-.379-15.512.755.159 1.505.311 2.251.47 29.184 6.208 39.781 12.789 43.09 15.461-3.439 2.585-15.158 8.682-42.929 14.611-.776.17-1.567.332-2.371.493zm11.752-57.209a336.096 336.096 0 0 0-14.603-2.956c-4.69-32.553-14.552-62.464-28.588-86.659a167.915 167.915 0 0 0-5.855-9.418c40.548 22.749 70.022 62.528 79.599 108.059-8.392-3.327-18.476-6.304-30.553-9.026zm-43.235 90.632c-4.571 26.006-12.667 49.512-23.541 68.27-12.152 20.951-28.765 36.282-45.275 42.049V309.219c24.559-.41 46.669-1.864 68.816-4.525zm-6.894 93.342a170.968 170.968 0 0 0 6.934-10.997c14.045-24.223 23.906-54.135 28.592-86.671a366.475 366.475 0 0 0 14.599-2.952c12.181-2.75 22.343-5.754 30.81-9.123-9.447 46.485-39.432 86.905-80.935 109.743zm-61.922-195.781V96.47c16.358 5.744 32.884 21.067 45.048 42.051 11.249 19.368 19.502 42.863 24.001 68.253-22.12-2.653-44.302-4.107-69.049-4.519zm-97.602 4.509c4.435-24.67 12.855-48.162 24.489-68.245 14.558-25.105 28.839-38.154 46.999-42.638v106.354c-31.018.391-50.637 1.971-71.488 4.529zm71.489 23.537v50.875c-33.017-.466-54.359-2.414-75.067-5.214a277.554 277.554 0 0 0-.773-6.062c-.627-4.666-1.276-9.49-1.276-14.152 0-4.676.649-9.504 1.276-14.17.274-2.028.55-4.051.773-6.063 20.778-2.808 42.139-4.761 75.067-5.214zm-104.81 9.935a317.83 317.83 0 0 0-.39 15.512c0 5.006.13 10.199.39 15.502-.761-.154-1.518-.313-2.266-.476-26.384-5.631-38.494-11.917-42.572-14.984 4.202-3.241 16.316-9.492 42.572-15.084a117.43 117.43 0 0 1 2.266-.47zm31.363-115.797c-14.038 24.207-23.901 54.118-28.594 86.669a353.24 353.24 0 0 0-14.58 2.952c-12.479 2.818-22.832 5.898-31.386 9.356 9.612-46.181 39.571-86.349 80.869-109.051a171.726 171.726 0 0 0-6.309 10.074zm-43.169 172.977a381.769 381.769 0 0 0 14.574 2.952c4.69 32.53 14.552 62.441 28.594 86.671a169.232 169.232 0 0 0 7.385 11.646c-42.266-22.782-72.725-63.583-82.176-110.731 8.638 3.495 19.231 6.668 31.623 9.462zm116.616 11.818v106.368c-18.496-4.554-33.375-17.917-47.719-42.638-10.62-18.309-18.37-41.245-23.07-68.258 21.196 2.614 40.123 4.138 70.789 4.528z"></path></svg>